Coordinates
version=1
nRows=6
nColumns=63
inDegrees=yes

Units are S.I. units (second, meters, Newtons, ...)
If the header above contains a line with 'inDegrees', this indicates whether rotational values are in degrees (yes) or radians (no).

endheader
time	pelvis_tilt	pelvis_list	pelvis_rotation	pelvis_tx	pelvis_ty	pelvis_tz	hip_flexion_r	hip_adduction_r	hip_rotation_r	knee_angle_r	knee_angle_r_beta	ankle_angle_r	subtalar_angle_r	mtp_angle_r	hip_flexion_l	hip_adduction_l	hip_rotation_l	knee_angle_l	knee_angle_l_beta	ankle_angle_l	subtalar_angle_l	mtp_angle_l	L5_S1_Flex_Ext	L5_S1_Lat_Bending	L5_S1_axial_rotation	L4_L5_Flex_Ext	L4_L5_Lat_Bending	L4_L5_axial_rotation	L3_L4_Flex_Ext	L3_L4_Lat_Bending	L3_L4_axial_rotation	L2_L3_Flex_Ext	L2_L3_Lat_Bending	L2_L3_axial_rotation	L1_L2_Flex_Ext	L1_L2_Lat_Bending	L1_L2_axial_rotation	L1_T12_Flex_Ext	L1_T12_Lat_Bending	L1_T12_axial_rotation	Abs_r3	Abs_r2	Abs_r1	Abs_t1	Abs_t2	neck_flexion	neck_bending	neck_rotation	arm_flex_r	arm_add_r	arm_rot_r	elbow_flex_r	pro_sup_r	wrist_flex_r	wrist_dev_r	arm_flex_l	arm_add_l	arm_rot_l	elbow_flex_l	pro_sup_l	wrist_flex_l	wrist_dev_l
      2.40909091	      2.11007700	      2.46921178	     92.03503333	      0.28277870	      0.86582806	      0.52928651	     -3.97215504	      0.52173025	      7.15919714	     10.02354833	      0.17494392	     24.54349252	    -12.64932563	      0.00000000	     -8.45662210	     -1.13368344	     11.45650865	      1.33003720	      0.02321353	     26.34168863	     -6.03959911	      0.00000000	     -0.21691933	      0.22021258	     -1.71999156	     -0.40284088	      0.29288273	     -1.82749103	     -0.35637676	      0.53542487	     -1.82749103	     -0.24791710	      0.53542487	     -1.50499262	     -0.20143129	      0.44905750	     -1.39749314	     -0.12394770	      0.34110929	     -1.28999367	     -1.54943305	      2.49108876	     -9.56607707	      0.00000000	      0.00000000	     12.68913788	     -4.86533362	     -4.33957096	     43.67596990	     -5.69428735	     -4.59938742	    109.98192290	     82.06962806	    -19.83587254	      8.01596628	     34.97503238	     -4.87125507	     25.62046268	    137.23545647	     86.95375418	      3.17206217	     17.55459992
      2.43181818	      2.10494519	      2.53976460	     91.40749362	      0.28345344	      0.86573608	      0.52913338	     -3.97345141	      0.45208105	      7.45420350	     10.12197606	      0.17666181	     24.81667114	    -12.20469422	      0.00000000	     -8.65365423	     -1.02114173	     11.67053079	      1.23319588	      0.02152333	     26.25309831	     -7.26068033	      0.00000000	     -0.21384400	      0.23358621	     -1.58344525	     -0.39712969	      0.31066965	     -1.68241058	     -0.35132430	      0.56794150	     -1.68241058	     -0.24440230	      0.56794150	     -1.38551460	     -0.19857554	      0.47632899	     -1.28654927	     -0.12219046	      0.36182503	     -1.18758394	     -1.52746629	      2.64237387	     -8.80664747	      0.00000000	      0.00000000	     12.37412081	     -4.73148295	     -4.34451638	     43.77500898	     -5.81544926	     -4.50331698	    109.56704925	     83.13634701	    -19.81172045	      7.79562645	     34.74880716	     -4.50949914	     25.12624943	    136.75348677	     87.30632784	      3.50904033	     17.32571963
      2.45454545	      2.12453574	      2.62114860	     90.87446924	      0.28406648	      0.86568171	      0.52921388	     -3.98297995	      0.43337995	      7.79981968	     10.21583150	      0.17829990	     25.02991798	    -12.01375005	      0.00000000	     -8.80418960	     -0.95404535	     11.30053852	      1.18513360	      0.02068448	     26.37155243	     -7.53661562	      0.00000000	     -0.20658017	      0.24779664	     -1.48213270	     -0.38364004	      0.32956953	     -1.57476600	     -0.33939057	      0.60249274	     -1.57476600	     -0.23610048	      0.60249274	     -1.29686612	     -0.19183035	      0.50530690	     -1.20423282	     -0.11803991	      0.38383699	     -1.11159953	     -1.47558151	      2.80312511	     -8.24317746	      0.00000000	      0.00000000	     11.91507828	     -4.75359224	     -4.30917326	     43.93543733	     -5.85215470	     -4.34401932	    108.99512072	     84.17806916	    -19.65541674	      7.58532587	     34.52876690	     -4.22742313	     24.66686371	    136.11286865	     87.58788988	      3.29288334	     17.28626920
      2.47727273	      2.11733890	      2.68411926	     90.33262799	      0.28480514	      0.86565226	      0.52953911	     -3.93864892	      0.37867076	      7.95985334	     10.34834254	      0.18061265	     25.33993707	    -11.55436460	      0.00000000	     -8.89679241	     -0.86274788	     10.66998336	      1.16545130	      0.02034096	     26.55512612	     -7.40735060	      0.00000000	     -0.19594203	      0.25426058	     -1.37648451	     -0.36388395	      0.33816657	     -1.46251480	     -0.32191317	      0.61820917	     -1.46251480	     -0.22394215	      0.61820917	     -1.20442395	     -0.18195177	      0.51848817	     -1.11839367	     -0.11196128	      0.39384963	     -1.03236339	     -1.39959436	      2.87624650	     -7.65559392	      0.00000000	      0.00000000	     11.45300060	     -4.86882000	     -4.44223430	     44.13327180	     -5.84761317	     -4.21357466	    108.43261120	     84.76440830	    -19.63231209	      7.70800098	     34.36595792	     -3.93902964	     24.28982295	    135.33245461	     87.77378411	      2.73471839	     17.50828524
      2.50000000	      2.06612116	      2.72662111	     89.49049144	      0.28616671	      0.86568633	      0.53005187	     -3.83054130	      0.31710103	      8.97181373	     10.49304681	      0.18313822	     25.40172664	    -11.87520936	      0.00000000	     -9.01728795	     -0.68881924	     10.48134516	      1.06235891	      0.01854166	     26.46110697	     -8.20316712	      0.00000000	     -0.18567686	      0.25139720	     -1.21491548	     -0.34482050	      0.33435828	     -1.29084770	     -0.30504851	      0.61124715	     -1.29084770	     -0.21221008	      0.61124715	     -1.06305104	     -0.17241953	      0.51264917	     -0.98711883	     -0.10609576	      0.38941426	     -0.91118661	     -1.32627125	      2.84385541	     -6.75699542	      0.00000000	      0.00000000	     10.99027045	     -4.96218868	     -4.53196971	     44.37552877	     -5.72285936	     -4.44831929	    108.03560234	     85.56041059	    -18.62677050	      9.15177004	     34.27911166	     -3.71534012	     24.07267564	    134.39325960	     87.59452053	      1.66360063	     17.35392618
      2.52272727	      1.99455606	      2.72188912	     88.87555053	      0.28729563	      0.86574687	      0.53073309	     -3.65167413	      0.25193319	      9.69718219	     10.68387630	      0.18646882	     25.43991598	    -12.16857192	      0.00000000	     -9.02354876	     -0.53562059	     10.89645298	      0.99843072	      0.01742590	     26.25303675	     -9.40206400	      0.00000000	     -0.17614876	      0.24161804	     -1.10638231	     -0.32712587	      0.32135199	     -1.17553120	     -0.28939480	      0.58747010	     -1.17553120	     -0.20132042	      0.58747010	     -0.96808452	     -0.16357174	      0.49270750	     -0.89893562	     -0.10065140	      0.37426634	     -0.82978673	     -1.25821300	      2.73323156	     -6.15336647	      0.00000000	      0.00000000	     10.54127045	     -5.20595302	     -4.73285458	     44.66598355	     -5.61592847	     -4.53910501	    107.64603581	     85.88582428	    -18.00055829	     10.15878965	     34.23602513	     -3.50024251	     23.84992140	    133.56219006	     87.38722536	      0.58648406	     17.36253772
